<svg width="39" height="35" viewBox="0 0 39 35" fill="none" xmlns="http://www.w3.org/2000/svg">
<path d="M13.1137 15.9006L15.4656 9.58777H29.577L31.9289 15.9006M29.577 22.9149C28.9532 22.9149 28.355 22.6932 27.9139 22.2986C27.4729 21.904 27.2251 21.3687 27.2251 20.8106C27.2251 20.2526 27.4729 19.7173 27.9139 19.3227C28.355 18.9281 28.9532 18.7064 29.577 18.7064C30.2008 18.7064 30.799 18.9281 31.24 19.3227C31.6811 19.7173 31.9289 20.2526 31.9289 20.8106C31.9289 21.3687 31.6811 21.904 31.24 22.2986C30.799 22.6932 30.2008 22.9149 29.577 22.9149ZM15.4656 22.9149C14.8418 22.9149 14.2436 22.6932 13.8026 22.2986C13.3615 21.904 13.1137 21.3687 13.1137 20.8106C13.1137 20.2526 13.3615 19.7173 13.8026 19.3227C14.2436 18.9281 14.8418 18.7064 15.4656 18.7064C16.0894 18.7064 16.6876 18.9281 17.1286 19.3227C17.5697 19.7173 17.8175 20.2526 17.8175 20.8106C17.8175 21.3687 17.5697 21.904 17.1286 22.2986C16.6876 22.6932 16.0894 22.9149 15.4656 22.9149ZM31.8035 8.88634C31.4742 8.04462 30.5805 7.48348 29.577 7.48348H15.4656C14.4621 7.48348 13.5684 8.04462 13.2391 8.88634L9.97784 17.3035V28.5264C9.97784 28.8984 10.143 29.2553 10.4371 29.5183C10.7311 29.7814 11.1299 29.9292 11.5458 29.9292H13.1137C13.5295 29.9292 13.9284 29.7814 14.2224 29.5183C14.5164 29.2553 14.6816 28.8984 14.6816 28.5264V27.1235H30.361V28.5264C30.361 28.8984 30.5261 29.2553 30.8202 29.5183C31.1142 29.7814 31.513 29.9292 31.9289 29.9292H33.4968C33.9127 29.9292 34.3115 29.7814 34.6055 29.5183C34.8996 29.2553 35.0648 28.8984 35.0648 28.5264V17.3035L31.8035 8.88634ZM23.9638 4.67776C23.6345 3.83605 22.7408 3.2749 21.7373 3.2749H7.62595C6.62247 3.2749 5.72875 3.83605 5.39948 4.67776L2.13818 13.0949V24.3178C2.13818 24.6899 2.30338 25.0467 2.59742 25.3098C2.89146 25.5729 3.29027 25.7207 3.70612 25.7207H5.27405C5.68989 25.7207 6.0887 25.5729 6.38274 25.3098C6.67679 25.0467 6.84198 24.6899 6.84198 24.3178V18.5801C5.61899 18.1873 4.99182 16.9808 5.43084 15.9006C5.77579 15.0589 6.63815 14.4978 7.62595 14.4978H7.7357L8.83325 11.6921H5.27405L7.62595 5.37919H24.2303L23.9638 4.67776Z" fill="#66672C"/>
</svg>
