<svg width="39" height="35" viewBox="0 0 39 35" fill="none" xmlns="http://www.w3.org/2000/svg">
<g clip-path="url(#clip0_383_1083)">
<path d="M3.70618 5.04932H35.0648C36.7111 5.04932 38.2007 6.38203 38.2007 7.85504V27.4951C38.2007 28.9681 36.7111 30.3008 35.0648 30.3008H3.70618C2.05985 30.3008 0.570312 28.9681 0.570312 27.4951V7.85504C0.570312 6.38203 2.05985 5.04932 3.70618 5.04932ZM22.5214 9.25789V10.6608H35.0648V9.25789H22.5214ZM22.5214 12.0636V13.4665H34.2808H35.0648V12.0636H22.5214ZM22.5214 14.8693V16.2722H33.4969V14.8693H22.5214ZM13.1138 20.3545C9.9779 20.3545 3.70618 21.8836 3.70618 24.6893V26.0922H22.5214V24.6893C22.5214 21.8836 16.2496 20.3545 13.1138 20.3545ZM13.1138 9.25789C11.8662 9.25789 10.6698 9.7013 9.78768 10.4906C8.90555 11.2798 8.40997 12.3503 8.40997 13.4665C8.40997 14.5827 8.90555 15.6531 9.78768 16.4424C10.6698 17.2316 11.8662 17.6751 13.1138 17.6751C14.3613 17.6751 15.5577 17.2316 16.4399 16.4424C17.322 15.6531 17.8176 14.5827 17.8176 13.4665C17.8176 12.3503 17.322 11.2798 16.4399 10.4906C15.5577 9.7013 14.3613 9.25789 13.1138 9.25789Z" fill="#1FC935"/>
</g>
<defs>
<clipPath id="clip0_383_1083">
<rect width="37.6304" height="33.6686" fill="white" transform="translate(0.570312 0.84082)"/>
</clipPath>
</defs>
</svg>
