<svg width="22" height="23" viewBox="0 0 22 23" fill="none" xmlns="http://www.w3.org/2000/svg">
<g clip-path="url(#clip0_350_1196)" filter="url(#filter0_d_350_1196)">
<rect width="13.3307" height="13.8949" transform="translate(4.07825 0.140137)" fill="#F4FFF5"/>
<path d="M10.7436 0.140137C7.06243 0.140137 4.07825 3.25062 4.07825 7.08757C4.07825 10.9245 7.06243 14.035 10.7436 14.035C14.4247 14.035 17.4089 10.9245 17.4089 7.08757C17.4089 3.25062 14.4247 0.140137 10.7436 0.140137ZM10.7436 1.64971C13.6249 1.64971 15.9598 4.08508 15.9598 7.08757C15.9598 10.0901 13.6249 12.5246 10.7436 12.5246C7.86226 12.5246 5.52733 10.0901 5.52733 7.08757C5.52734 4.08508 7.86226 1.64971 10.7436 1.64971ZM13.2976 3.78856L9.43443 7.81607L8.18142 6.51003L6.95201 7.79063L8.20502 9.09666L9.44256 10.3866L10.6712 9.10514L14.5351 5.07848L13.2976 3.78856Z" fill="#343C6A"/>
</g>
<defs>
<filter id="filter0_d_350_1196" x="0.0782471" y="0.140137" width="21.3307" height="21.895" filterUnits="userSpaceOnUse" color-interpolation-filters="sRGB">
<feFlood flood-opacity="0" result="BackgroundImageFix"/>
<feColorMatrix in="SourceAlpha" type="matrix" values="0 0 0 0 0 0 0 0 0 0 0 0 0 0 0 0 0 0 127 0" result="hardAlpha"/>
<feOffset dy="4"/>
<feGaussianBlur stdDeviation="2"/>
<feComposite in2="hardAlpha" operator="out"/>
<feColorMatrix type="matrix" values="0 0 0 0 0 0 0 0 0 0 0 0 0 0 0 0 0 0 0.25 0"/>
<feBlend mode="normal" in2="BackgroundImageFix" result="effect1_dropShadow_350_1196"/>
<feBlend mode="normal" in="SourceGraphic" in2="effect1_dropShadow_350_1196" result="shape"/>
</filter>
<clipPath id="clip0_350_1196">
<rect width="13.3307" height="13.8949" fill="white" transform="translate(4.07825 0.140137)"/>
</clipPath>
</defs>
</svg>
