<svg width="18" height="18" viewBox="0 0 18 18" fill="none" xmlns="http://www.w3.org/2000/svg">
<path d="M3.46548 7.74273C4.83663 10.5515 7.04572 12.8441 9.74041 14.2832L11.8352 12.0998C12.0923 11.8318 12.4732 11.7425 12.8065 11.8616C13.8729 12.2288 15.0251 12.4273 16.2058 12.4273C16.7295 12.4273 17.158 12.8739 17.158 13.4198V16.8836C17.158 17.4294 16.7295 17.8761 16.2058 17.8761C7.26472 17.8761 0.0185547 10.3232 0.0185547 1.00372C0.0185547 0.457851 0.44704 0.0112305 0.970744 0.0112305H4.30341C4.82711 0.0112305 5.2556 0.457851 5.2556 1.00372C5.2556 2.24433 5.44604 3.43532 5.79835 4.54691C5.90309 4.89428 5.82691 5.28136 5.5603 5.55925L3.46548 7.74273Z" fill="#0C9611"/>
</svg>
