<svg width="16" height="22" viewBox="0 0 16 22" fill="none" xmlns="http://www.w3.org/2000/svg">
<path d="M7.68392 16.4257C8.189 16.4257 8.67338 16.2166 9.03052 15.8444C9.38766 15.4721 9.5883 14.9672 9.5883 14.4408C9.5883 13.9143 9.38766 13.4094 9.03052 13.0372C8.67338 12.6649 8.189 12.4558 7.68392 12.4558C7.17885 12.4558 6.69447 12.6649 6.33733 13.0372C5.98018 13.4094 5.77954 13.9143 5.77954 14.4408C5.77954 14.9672 5.98018 15.4721 6.33733 15.8444C6.69447 16.2166 7.17885 16.4257 7.68392 16.4257ZM13.3971 7.49333C13.9021 7.49333 14.3865 7.70246 14.7437 8.07472C15.1008 8.44698 15.3014 8.95186 15.3014 9.47831V19.4032C15.3014 19.9297 15.1008 20.4346 14.7437 20.8068C14.3865 21.1791 13.9021 21.3882 13.3971 21.3882H1.97079C1.46571 21.3882 0.981326 21.1791 0.624186 20.8068C0.267046 20.4346 0.0664063 19.9297 0.0664062 19.4032V9.47831C0.0664062 8.95186 0.267046 8.44698 0.624186 8.07472C0.981326 7.70246 1.46571 7.49333 1.97079 7.49333H2.92298V5.50835C2.92298 4.19223 3.42457 2.93001 4.31743 1.99937C5.21028 1.06873 6.42124 0.545898 7.68392 0.545898C8.30914 0.545898 8.92824 0.674256 9.50586 0.923643C10.0835 1.17303 10.6083 1.53856 11.0504 1.99937C11.4925 2.46017 11.8432 3.00723 12.0825 3.6093C12.3217 4.21138 12.4449 4.85667 12.4449 5.50835V7.49333H13.3971ZM7.68392 2.53088C6.92632 2.53088 6.19974 2.84458 5.66402 3.40296C5.12831 3.96135 4.82736 4.71868 4.82736 5.50835V7.49333H10.5405V5.50835C10.5405 4.71868 10.2395 3.96135 9.70382 3.40296C9.16811 2.84458 8.44153 2.53088 7.68392 2.53088Z" fill="#31A21F"/>
</svg>
