<svg width="39" height="35" viewBox="0 0 39 35" fill="none" xmlns="http://www.w3.org/2000/svg">
<path d="M19.3854 4.86377C21.0487 4.86377 22.644 5.45497 23.8202 6.50732C24.9963 7.55967 25.6571 8.98696 25.6571 10.4752C25.6571 11.4993 25.3592 12.4532 24.8104 13.2809H28.793C30.2825 13.2809 31.5368 14.2208 31.8504 15.4694C35.002 26.7063 35.0647 27.0009 35.0647 27.3095C35.0647 28.0536 34.7343 28.7673 34.1462 29.2935C33.5581 29.8196 32.7605 30.1152 31.9288 30.1152H6.84192C6.01024 30.1152 5.21262 29.8196 4.62453 29.2935C4.03644 28.7673 3.70605 28.0536 3.70605 27.3095C3.70605 27.0009 3.76877 26.7063 6.92032 15.4694C7.2339 14.2208 8.48825 13.2809 9.97778 13.2809H13.9603C13.4116 12.4532 13.1136 11.4993 13.1136 10.4752C13.1136 8.98696 13.7744 7.55967 14.9506 6.50732C16.1268 5.45497 17.722 4.86377 19.3854 4.86377ZM19.3854 7.66949C18.5537 7.66949 17.7561 7.96509 17.168 8.49126C16.5799 9.01744 16.2495 9.73108 16.2495 10.4752C16.2495 11.2193 16.5799 11.933 17.168 12.4591C17.7561 12.9853 18.5537 13.2809 19.3854 13.2809C20.2171 13.2809 21.0147 12.9853 21.6028 12.4591C22.1909 11.933 22.5212 11.2193 22.5212 10.4752C22.5212 9.73108 22.1909 9.01744 21.6028 8.49126C21.0147 7.96509 20.2171 7.66949 19.3854 7.66949ZM9.97778 16.0866V27.3095H13.1136V23.8024L14.6816 25.2052V27.3095H17.8174V24.5038L14.6816 21.6981L17.8174 18.8924V16.0866H14.6816V18.1909L13.1136 19.5938V16.0866H9.97778ZM24.0892 16.0866C22.3488 16.0866 20.9533 17.3352 20.9533 18.8924V24.5038C20.9533 26.061 22.3488 27.3095 24.0892 27.3095H28.793V20.2952H25.6571V24.5038H24.0892V18.8924H28.793V16.0866H24.0892Z" fill="#ED4E82"/>
</svg>
